<svg xmlns="http://www.w3.org/2000/svg" xmlns:xlink="http://www.w3.org/1999/xlink" viewBox="0 0 749.5 295.5"><defs><style>.cls-1{fill:none;}.cls-2{clip-path:url(#clip-path);}.cls-3{fill:#38489e;}.cls-4{fill:#ed1c24;}</style><clipPath id="clip-path" transform="translate(-48.42 -183.96)"><rect class="cls-1" width="841.89" height="595.28"/></clipPath></defs><title>Zasób 1dsa</title><g id="Warstwa_2" data-name="Warstwa 2"><g id="Warstwa_1-2" data-name="Warstwa 1"><g class="cls-2"><path class="cls-3" d="M71,280.53c-37.33-55.5,307-121,320.83-65.83C405.3,268.36,243,300.7,163,372,267.3,329.86,519.14,299.2,519.3,280.7c.2-21.67-97.66-5.5-100-46.5-2-35.48,140.73-52.47,199.25-50C683.8,187,830.73,221.55,791.3,263.45c-19.39,20.6-45.45-24.63-152.75-37.5-50-6-118.58.25-119.25,5.25-1,7.16,83,16,75.5,53.75C579.8,360.47,407.3,324.2,173,421.69,144.91,433.37,75.14,473.86,51.64,429,16.74,362.44,277.3,259.7,293.3,241.7c-163,13.66-201,70.53-222.33,38.83" transform="translate(-48.42 -183.96)"/><path class="cls-3" d="M590.3,390.7c-17.5-6.25,36-58.75,33.25-117.75-1.94-41.72,87.5-10.75,69,27.5C677.46,331.66,633.09,406,590.3,390.7" transform="translate(-48.42 -183.96)"/><path class="cls-4" d="M589.54,424.4c10.32,14.17,5.43,35.32-10.93,47.22s-38,10.05-48.29-4.12-5.43-35.33,10.93-47.23,38-10,48.29,4.13" transform="translate(-48.42 -183.96)"/></g></g></g></svg>